<?xml version="1.0" encoding="UTF-8" standalone="no"?>
<svg
   xmlns:dc="http://purl.org/dc/elements/1.1/"
   xmlns:cc="http://creativecommons.org/ns#"
   xmlns:rdf="http://www.w3.org/1999/02/22-rdf-syntax-ns#"
   xmlns:svg="http://www.w3.org/2000/svg"
   xmlns="http://www.w3.org/2000/svg"
   id="svg8"
   version="1.1"
   viewBox="0 0 105.83334 105.83334"
   height="105.83334mm"
   width="105.83334mm">
  <defs
     id="defs2" />
  <metadata
     id="metadata5">
    <rdf:RDF>
      <cc:Work
         rdf:about="">
        <dc:format>image/svg+xml</dc:format>
        <dc:type
           rdf:resource="http://purl.org/dc/dcmitype/StillImage" />
        <dc:title></dc:title>
      </cc:Work>
    </rdf:RDF>
  </metadata>
  <g
     transform="translate(-56.75802,-89.669319)"
     id="layer1">
    <g
       transform="translate(-171.22321,45.357143)"
       id="g180">
      <path
         id="path182"
         d="m 256.31221,144.23649 c -1.14855,-1.11566 -2.51464,-2.8001 -3.03577,-3.7432 -0.99555,-1.80168 -2.71743,-6.85383 -2.71743,-7.97319 0,-0.36062 -0.67469,-1.49214 -1.49931,-2.51448 -5.31782,-6.59295 -7.16917,-9.85441 -9.02568,-15.90031 -2.19482,-7.14762 -1.59832,-17.325794 1.45372,-24.805007 0.81435,-1.995622 3.37346,-6.888791 4.10907,-7.856768 0.40611,-0.534398 1.43083,-1.857911 2.27715,-2.941138 0.84633,-1.083227 1.7229,-2.31354 1.94793,-2.734028 0.22504,-0.420488 0.71549,-0.764524 1.0899,-0.764524 0.94254,0 1.41111,-1.046575 1.41111,-3.151809 0,-1.988324 0.25692,-2.139894 1.75271,-1.03401 1.52537,1.12776 2.27634,0.679565 2.01233,-1.201005 -0.18833,-1.341471 -0.82345,-2.748809 -2.82092,-6.25078 -1.68196,-2.948833 0.917,-1.163685 3.75529,2.579388 2.13991,2.822064 3.15019,3.347637 4.14073,2.154109 0.60815,-0.732772 -1.1197,-4.061274 -3.96775,-7.643424 -4.08608,-5.139287 -0.31085,-3.184249 5.30049,2.744906 3.26389,3.448748 3.67434,3.670155 5.27867,2.847452 4.47184,-2.293168 15.61886,-2.12186 22.16093,0.34057 2.02577,0.762497 2.3323,0.792713 3.55702,0.350632 3.90275,-1.40875 13.03574,-5.767824 20.39022,-9.732025 10.12321,-5.456591 13.93561,-7.404006 14.49464,-7.404006 0.80571,0 0.57352,0.641727 -0.47172,1.303738 -0.53357,0.337947 -1.79861,1.254419 -2.81119,2.036605 -1.01258,0.782187 -2.99695,2.261773 -4.40972,3.287969 -2.28362,1.65876 -4.54395,3.320671 -12.52877,9.211797 -1.20944,0.892316 -3.39773,2.495517 -4.86287,3.56267 -1.46514,1.067153 -3.52083,2.614965 -4.56819,3.439584 -1.04737,0.824618 -2.0461,1.499305 -2.21939,1.499305 -0.44937,0 -1.84918,1.552744 -1.84918,2.051209 0,0.556833 0.75135,0.527189 2.96758,-0.117087 1.01279,-0.294428 2.94223,-0.57224 4.28763,-0.617361 3.21096,-0.107687 3.2313,0.454156 0.10759,2.971913 -1.28622,1.036716 -3.34997,2.771613 -4.58611,3.855325 -3.85536,3.379968 -7.35774,5.396463 -10.66738,6.141756 -1.22333,0.275481 -1.84875,0.604876 -1.92802,1.015443 -0.15758,0.816193 0.568,1.632137 1.45138,1.632137 1.05339,0 4.19396,2.505181 5.68225,4.532633 1.58509,2.159339 3.18183,5.616301 3.87268,8.384421 0.28496,1.1418 0.62909,2.43319 0.76473,2.86975 0.48106,1.54825 -1.07168,0.84979 -3.74643,-1.68522 -1.43859,-1.36344 -3.24926,-2.91125 -4.02372,-3.43958 -0.77445,-0.52834 -2.2032,-1.555243 -3.175,-2.282015 -0.97179,-0.726768 -1.88429,-1.32208 -2.02776,-1.322916 -0.14348,-7.06e-4 -1.17535,-0.636309 -2.29306,-1.412166 -1.11771,-0.775858 -2.21119,-1.410858 -2.42997,-1.411112 -0.21877,-2.54e-4 -0.5954,-0.238587 -0.83694,-0.529629 -0.50368,-0.60689 -1.61542,-0.702013 -1.94637,-0.166532 -0.29023,0.469597 1.15242,1.65861 2.34341,1.931416 0.50942,0.116689 1.66035,0.915589 2.55764,1.775341 1.91803,1.837799 1.96814,2.253723 1.10508,9.173183 -0.28949,2.32096 -0.52762,4.7958 -0.52917,5.49965 -0.004,1.66042 -0.83968,2.44371 -1.69621,1.58921 -0.48612,-0.48496 -0.63306,-1.51386 -0.77605,-5.43385 -0.15488,-4.24598 -0.2518,-4.85002 -0.79481,-4.95378 -0.35111,-0.0671 -0.72495,0.15996 -0.86486,0.52526 -0.73761,1.92597 -4.95714,7.16983 -5.76928,7.16983 -1.09666,0 -0.88292,-0.68068 2.46251,-7.84224 1.55794,-3.33508 1.78277,-4.359742 0.88064,-4.013564 -0.30691,0.117775 -0.61035,0.214134 -0.67431,0.214134 -0.48805,0 -5.40211,6.83659 -6.52124,9.07255 -1.53792,3.07266 -2.82344,7.80976 -2.82729,10.41842 -0.004,2.71941 -0.7754,2.25022 -6.02372,-3.66386 -4.13123,-4.65527 -4.72774,-5.48034 -4.65469,-6.43819 0.33718,-4.42165 -0.0262,-5.8096 -2.71359,-10.365897 -0.97803,-1.658158 -1.03123,-1.883943 -0.49258,-2.090643 0.63738,-0.244584 2.83495,1.948544 3.84413,3.83637 0.81419,1.52307 2.62965,1.75593 2.62965,0.3373 0,-0.33891 0.39687,-1.15413 0.88194,-1.811607 0.48507,-0.657476 0.87687,-1.442378 0.87066,-1.744232 -0.006,-0.301855 -1.30784,-1.897575 -2.89251,-3.546052 -2.19977,-2.288322 -2.73355,-3.02567 -2.25681,-3.11748 0.70887,-0.136515 2.78823,1.207647 4.28504,2.769983 1.32567,1.383693 2.01215,1.326624 3.26296,-0.271247 2.08762,-2.666895 1.74966,-3.669994 -2.70022,-8.014653 -2.11289,-2.062929 -2.51533,-2.656876 -1.80022,-2.656876 0.4627,0 3.68997,2.25086 5.34503,3.727891 2.36741,2.112765 2.42343,2.112413 4.74417,-0.02981 2.35886,-2.177405 3.06238,-2.323794 5.07174,-1.055335 2.06724,1.304992 4.92371,2.295758 6.61947,2.295959 1.68507,1.98e-4 2.00937,-0.568142 0.52916,-0.927393 -1.64148,-0.398392 -4.13221,-1.840092 -5.2568,-3.042775 -2.21729,-2.371256 -3.17642,-4.755199 -4.32979,-10.761772 -0.75903,-3.952925 -0.8946,-4.317878 -1.60393,-4.317878 -0.8263,0 -5.53654,2.864768 -8.55158,5.201076 -13.11211,10.160365 -17.5399,28.549851 -10.28835,42.729521 1.92269,3.7596 3.49981,5.21615 4.06191,3.75135 0.42155,-1.09854 0.75575,-0.45352 0.89456,1.72655 0.16609,2.60827 1.12626,4.28765 3.49022,6.10452 1.89548,1.45681 2.3004,1.23921 2.57453,-1.38353 0.3852,-3.68536 0.94023,-3.20232 1.63687,1.42453 0.53321,3.5414 0.63911,3.72265 2.82113,4.82836 2.01765,1.02242 2.32481,0.83899 2.54612,-1.5205 0.19105,-2.03679 0.79294,-3.05887 1.30931,-2.22336 0.16453,0.2662 0.50842,1.66189 0.76422,3.10154 0.54208,3.05083 0.62617,3.14454 3.46902,3.866 2.86712,0.72761 3.19937,0.56097 3.19937,-1.60472 0,-0.96477 0.18053,-1.86571 0.40118,-2.00208 0.51549,-0.31859 1.59586,1.10749 1.86733,2.46483 0.38947,1.94734 1.0676,2.32759 4.15104,2.32759 7.32358,0 15.30606,-2.99182 21.77694,-8.16194 1.9705,-1.5744 3.67003,-2.77525 3.77672,-2.66856 0.49439,0.49439 -0.50092,1.84236 -3.39135,4.59298 -11.58698,11.02651 -29.84161,14.2852 -43.88428,7.83389 -1.85437,-0.85191 -2.12981,-0.89589 -2.60909,-0.41661 -0.47928,0.47928 -0.45617,0.87751 0.21894,3.77227 1.07741,4.61978 0.79091,4.84815 -2.30701,1.83894 z m 29.82347,-70.800879 c 0.16471,-0.855244 -0.83682,-1.606767 -2.14128,-1.606767 -1.77909,0 -1.61792,1.866682 0.19231,2.227351 1.28705,0.256431 1.81228,0.08919 1.94897,-0.620584 z"
         style="fill:#ffffff;stroke-width:0.35277781" />
    </g>
  </g>
</svg>
